<svg xmlns="http://www.w3.org/2000/svg" viewBox="0 0 640 360" role="img"><rect width="640" height="360" rx="32" fill="#fff8ed"/><circle cx="548" cy="74" r="55" fill="#ed9f78" opacity=".18"/><path d="M0 292c130-26 224 12 336-5 122-19 188 10 304-10v83H0Z" fill="#f7e2c4"/><path d="M0 96c85-30 148-20 235 5 93 26 205-31 405 1" fill="none" stroke="#f4b942" stroke-width="8" opacity=".22" stroke-linecap="round"/><circle cx="176" cy="116" r="37" fill="#f1b58e"/><path d="M140 108c8-43 72-43 82 0-25-13-56-13-82 0Z" fill="#6c4a3f"/><path d="M154 155c18 18 35 18 52 0" fill="none" stroke="#7d493e" stroke-width="7" stroke-linecap="round"/><rect x="285" y="126" width="185" height="112" rx="15" fill="#fffaf0" stroke="#d9c8ae" stroke-width="5"/><path d="M310 211c30-60 57 30 90-37 24-49 42 16 60-20" fill="none" stroke="#ed9f78" stroke-width="18" stroke-linecap="round"/><circle cx="286" cy="274" r="24" fill="#f4b942"/><circle cx="345" cy="274" r="24" fill="#ed9f78"/><path d="M130 184c-18 19-26 39-24 59M222 184c17 19 25 39 23 59" stroke="#7d493e" stroke-width="12" stroke-linecap="round"/><circle cx="110" cy="246" r="16" fill="#ed9f78"/><circle cx="238" cy="246" r="16" fill="#f4b942"/><path d="M95 290c38 18 77 18 116 0" fill="none" stroke="#e9b88e" stroke-width="8" stroke-linecap="round"/></svg>
