<svg xmlns="http://www.w3.org/2000/svg" viewBox="0 0 640 360" role="img"><rect width="640" height="360" rx="32" fill="#fff8ed"/><circle cx="548" cy="74" r="55" fill="#f4b942" opacity=".18"/><path d="M0 292c130-26 224 12 336-5 122-19 188 10 304-10v83H0Z" fill="#f7e2c4"/><path d="M0 96c85-30 148-20 235 5 93 26 205-31 405 1" fill="none" stroke="#68a8d8" stroke-width="8" opacity=".22" stroke-linecap="round"/><circle cx="176" cy="116" r="37" fill="#f1b58e"/><path d="M140 108c8-43 72-43 82 0-25-13-56-13-82 0Z" fill="#6c4a3f"/><path d="M154 155c18 18 35 18 52 0" fill="none" stroke="#7d493e" stroke-width="7" stroke-linecap="round"/><path d="M290 132c28 0 28 40 2 56l-20 14c-19 14-5 51 25 51h90c30 0 42-32 22-51l-20-15c-25-19-18-55 4-55" fill="#f4b942" stroke="#8b6a54" stroke-width="6"/><path d="M330 151c20 25 50 25 72 0" fill="none" stroke="#fff2db" stroke-width="9" stroke-linecap="round"/><path d="M130 184c-18 19-26 39-24 59M222 184c17 19 25 39 23 59" stroke="#7d493e" stroke-width="12" stroke-linecap="round"/><circle cx="110" cy="246" r="16" fill="#f4b942"/><circle cx="238" cy="246" r="16" fill="#68a8d8"/><path d="M95 290c38 18 77 18 116 0" fill="none" stroke="#e9b88e" stroke-width="8" stroke-linecap="round"/></svg>